# xmcd CD database file
#
# Track frame offsets:
#	150
#	16585
#	43097
#	57005
#	75184
#	89964
#	107094
#	121094
#	140250
#	155483
#	173384
#	193869
#
# Disc length: 2768 seconds
#
# Revision: 3
# Processed by: cddbd v1.5.1PL2 Copyright (c) Steve Scherf et al.
# Submitted via: CDex 1.51
#
DISCID=8b0ace0c
DTITLE=ハリー・ベラフォンテ - 　
DYEAR=1900
DGENRE=
TTITLE0=マティルダ
TTITLE1=ダニー・ボーイ
TTITLE2=バナナ･ボート
TTITLE3=スイング・ロー・スイート・チャリオット
TTITLE4=赤いリボン
TTITLE5=シェナンダー
TTITLE6=帰りませライザ
TTITLE7=コットン･フィールズ
TTITLE8=アンチェインド･メロディ
TTITLE9=ハヴァ・ナギラ
TTITLE10=マン・スマート
TTITLE11=さらばジャマイカ
EXTD=
EXTT0=
EXTT1=
EXTT2=
EXTT3=
EXTT4=
EXTT5=
EXTT6=
EXTT7=
EXTT8=
EXTT9=
EXTT10=
EXTT11=
PLAYORDER=
